<mxfile host="app.diagrams.net" modified="2023-05-07T17:02:58.727Z" agent="Mozilla/5.0 (Macintosh; Intel Mac OS X 10_15_7) AppleWebKit/605.1.15 (KHTML, like Gecko) Version/16.4.1 Safari/605.1.15" etag="KjEG_a_ziEq-TURJ4mNu" version="21.2.9" type="device">
  <diagram name="Page-1" id="1k_emI2uy5FC6_PCG2i-">
    <mxGraphModel dx="883" dy="622" grid="1" gridSize="10" guides="1" tooltips="1" connect="1" arrows="1" fold="1" page="1" pageScale="1" pageWidth="827" pageHeight="1169" math="0" shadow="0">
      <root>
        <mxCell id="0" />
        <mxCell id="1" parent="0" />
        <mxCell id="Yx7xHUhz85fxbA7FieGk-7" value="&lt;b&gt;TABLE: &amp;nbsp;user_dek&lt;/b&gt;" style="swimlane;fontStyle=0;childLayout=stackLayout;horizontal=1;startSize=30;horizontalStack=0;resizeParent=1;resizeParentMax=0;resizeLast=0;collapsible=1;marginBottom=0;whiteSpace=wrap;html=1;strokeColor=#FFFFFF;fontColor=#FFFFFF;fillColor=#182E3E;align=left;spacingRight=5;spacingLeft=10;" parent="1" vertex="1">
          <mxGeometry x="340" y="260" width="140" height="120" as="geometry" />
        </mxCell>
        <mxCell id="Yx7xHUhz85fxbA7FieGk-8" value="uid [PK]" style="text;strokeColor=#FFFFFF;fillColor=#182E3E;align=center;verticalAlign=middle;spacingLeft=4;spacingRight=4;overflow=hidden;points=[[0,0.5],[1,0.5]];portConstraint=eastwest;rotatable=0;whiteSpace=wrap;html=1;fontColor=#FFFFFF;fontStyle=0;startSize=30;" parent="Yx7xHUhz85fxbA7FieGk-7" vertex="1">
          <mxGeometry y="30" width="140" height="30" as="geometry" />
        </mxCell>
        <mxCell id="Yx7xHUhz85fxbA7FieGk-9" value="encrypted_dek" style="text;strokeColor=#FFFFFF;fillColor=#182E3E;align=center;verticalAlign=middle;spacingLeft=4;spacingRight=4;overflow=hidden;points=[[0,0.5],[1,0.5]];portConstraint=eastwest;rotatable=0;whiteSpace=wrap;html=1;fontColor=#FFFFFF;fontStyle=0;startSize=30;" parent="Yx7xHUhz85fxbA7FieGk-7" vertex="1">
          <mxGeometry y="60" width="140" height="30" as="geometry" />
        </mxCell>
        <mxCell id="Yx7xHUhz85fxbA7FieGk-10" value="created_ts" style="text;strokeColor=#FFFFFF;fillColor=#182E3E;align=center;verticalAlign=middle;spacingLeft=4;spacingRight=4;overflow=hidden;points=[[0,0.5],[1,0.5]];portConstraint=eastwest;rotatable=0;whiteSpace=wrap;html=1;fontColor=#FFFFFF;fontStyle=0;startSize=30;" parent="Yx7xHUhz85fxbA7FieGk-7" vertex="1">
          <mxGeometry y="90" width="140" height="30" as="geometry" />
        </mxCell>
        <mxCell id="Yx7xHUhz85fxbA7FieGk-11" value="&lt;b&gt;TABLE: &amp;nbsp;grocery_list&lt;/b&gt;" style="swimlane;fontStyle=0;childLayout=stackLayout;horizontal=1;startSize=30;horizontalStack=0;resizeParent=1;resizeParentMax=0;resizeLast=0;collapsible=1;marginBottom=0;whiteSpace=wrap;html=1;strokeColor=#FFFFFF;fontColor=#FFFFFF;fillColor=#182E3E;align=left;spacingRight=5;spacingLeft=10;labelBorderColor=none;rounded=0;shadow=0;glass=0;strokeWidth=1;" parent="1" vertex="1">
          <mxGeometry x="520" y="230" width="210" height="210" as="geometry" />
        </mxCell>
        <mxCell id="Yx7xHUhz85fxbA7FieGk-12" value="id [PK]" style="text;strokeColor=#FFFFFF;fillColor=#182E3E;align=center;verticalAlign=middle;spacingLeft=4;spacingRight=4;overflow=hidden;points=[[0,0.5],[1,0.5]];portConstraint=eastwest;rotatable=0;whiteSpace=wrap;html=1;fontColor=#FFFFFF;fontStyle=0;startSize=30;fontFamily=Helvetica;" parent="Yx7xHUhz85fxbA7FieGk-11" vertex="1">
          <mxGeometry y="30" width="210" height="30" as="geometry" />
        </mxCell>
        <mxCell id="Yx7xHUhz85fxbA7FieGk-13" value="uid" style="text;strokeColor=#FFFFFF;fillColor=#182E3E;align=center;verticalAlign=middle;spacingLeft=4;spacingRight=4;overflow=hidden;points=[[0,0.5],[1,0.5]];portConstraint=eastwest;rotatable=0;whiteSpace=wrap;html=1;fontColor=#FFFFFF;fontStyle=0;startSize=30;fontFamily=Helvetica;" parent="Yx7xHUhz85fxbA7FieGk-11" vertex="1">
          <mxGeometry y="60" width="210" height="30" as="geometry" />
        </mxCell>
        <mxCell id="Yx7xHUhz85fxbA7FieGk-14" value="encrypted_grocery_Item (JSON)" style="text;strokeColor=#FFFFFF;fillColor=#182E3E;align=center;verticalAlign=middle;spacingLeft=4;spacingRight=4;overflow=hidden;points=[[0,0.5],[1,0.5]];portConstraint=eastwest;rotatable=0;whiteSpace=wrap;html=1;fontColor=#FFFFFF;fontStyle=0;startSize=30;fontFamily=Helvetica;" parent="Yx7xHUhz85fxbA7FieGk-11" vertex="1">
          <mxGeometry y="90" width="210" height="30" as="geometry" />
        </mxCell>
        <mxCell id="Yx7xHUhz85fxbA7FieGk-22" value="created_ts" style="text;strokeColor=#FFFFFF;fillColor=#182E3E;align=center;verticalAlign=middle;spacingLeft=4;spacingRight=4;overflow=hidden;points=[[0,0.5],[1,0.5]];portConstraint=eastwest;rotatable=0;whiteSpace=wrap;html=1;fontColor=#FFFFFF;fontStyle=0;startSize=30;fontFamily=Helvetica;" parent="Yx7xHUhz85fxbA7FieGk-11" vertex="1">
          <mxGeometry y="120" width="210" height="30" as="geometry" />
        </mxCell>
        <mxCell id="Yx7xHUhz85fxbA7FieGk-23" value="last_updated_ts" style="text;strokeColor=#FFFFFF;fillColor=#182E3E;align=center;verticalAlign=middle;spacingLeft=4;spacingRight=4;overflow=hidden;points=[[0,0.5],[1,0.5]];portConstraint=eastwest;rotatable=0;whiteSpace=wrap;html=1;fontColor=#FFFFFF;fontStyle=0;startSize=30;fontFamily=Helvetica;" parent="Yx7xHUhz85fxbA7FieGk-11" vertex="1">
          <mxGeometry y="150" width="210" height="30" as="geometry" />
        </mxCell>
        <mxCell id="Yx7xHUhz85fxbA7FieGk-21" value="complete_ts" style="text;strokeColor=#FFFFFF;fillColor=#182E3E;align=center;verticalAlign=middle;spacingLeft=4;spacingRight=4;overflow=hidden;points=[[0,0.5],[1,0.5]];portConstraint=eastwest;rotatable=0;whiteSpace=wrap;html=1;fontColor=#FFFFFF;fontStyle=0;startSize=30;fontFamily=Helvetica;" parent="Yx7xHUhz85fxbA7FieGk-11" vertex="1">
          <mxGeometry y="180" width="210" height="30" as="geometry" />
        </mxCell>
        <mxCell id="Yx7xHUhz85fxbA7FieGk-24" style="edgeStyle=orthogonalEdgeStyle;rounded=0;orthogonalLoop=1;jettySize=auto;html=1;exitX=0;exitY=0.5;exitDx=0;exitDy=0;entryX=1;entryY=0.5;entryDx=0;entryDy=0;strokeColor=#23445D;" parent="1" source="Yx7xHUhz85fxbA7FieGk-13" target="Yx7xHUhz85fxbA7FieGk-8" edge="1">
          <mxGeometry relative="1" as="geometry" />
        </mxCell>
        <mxCell id="Yx7xHUhz85fxbA7FieGk-34" value="Actions Taken by Service" style="swimlane;childLayout=stackLayout;resizeParent=1;resizeParentMax=0;startSize=20;horizontal=0;horizontalStack=1;strokeColor=#FFFFFF;fontColor=#FFFFFF;fillColor=#182E3E;fontStyle=1" parent="1" vertex="1">
          <mxGeometry x="20" y="489" width="715" height="680" as="geometry" />
        </mxCell>
        <mxCell id="XThWHbHolKILC9ehBfzs-2" style="edgeStyle=orthogonalEdgeStyle;rounded=0;orthogonalLoop=1;jettySize=auto;html=1;exitX=0;exitY=0.5;exitDx=0;exitDy=0;strokeColor=#82b366;fillColor=#d5e8d4;strokeWidth=5;" edge="1" parent="Yx7xHUhz85fxbA7FieGk-34" source="Yx7xHUhz85fxbA7FieGk-53" target="Yx7xHUhz85fxbA7FieGk-52">
          <mxGeometry relative="1" as="geometry" />
        </mxCell>
        <mxCell id="XThWHbHolKILC9ehBfzs-3" style="edgeStyle=orthogonalEdgeStyle;rounded=0;orthogonalLoop=1;jettySize=auto;html=1;exitX=0;exitY=0.5;exitDx=0;exitDy=0;entryX=1;entryY=0.5;entryDx=0;entryDy=0;strokeColor=#82b366;fillColor=#d5e8d4;strokeWidth=5;" edge="1" parent="Yx7xHUhz85fxbA7FieGk-34" source="Yx7xHUhz85fxbA7FieGk-52" target="Yx7xHUhz85fxbA7FieGk-54">
          <mxGeometry relative="1" as="geometry" />
        </mxCell>
        <mxCell id="Yx7xHUhz85fxbA7FieGk-35" value="Client" style="swimlane;startSize=30;strokeColor=#FFFFFF;fontColor=#FFFFFF;fillColor=#182E3E;" parent="Yx7xHUhz85fxbA7FieGk-34" vertex="1">
          <mxGeometry x="20" width="220" height="680" as="geometry" />
        </mxCell>
        <mxCell id="Yx7xHUhz85fxbA7FieGk-62" style="edgeStyle=orthogonalEdgeStyle;rounded=0;orthogonalLoop=1;jettySize=auto;html=1;exitX=0.5;exitY=1;exitDx=0;exitDy=0;strokeColor=#82b366;fillColor=#d5e8d4;strokeWidth=5;" parent="Yx7xHUhz85fxbA7FieGk-35" source="Yx7xHUhz85fxbA7FieGk-48" target="Yx7xHUhz85fxbA7FieGk-50" edge="1">
          <mxGeometry relative="1" as="geometry" />
        </mxCell>
        <mxCell id="Yx7xHUhz85fxbA7FieGk-48" value="user logged in" style="shape=process;whiteSpace=wrap;html=1;backgroundOutline=1;strokeColor=#FFFFFF;fontColor=#FFFFFF;fillColor=#182E3E;" parent="Yx7xHUhz85fxbA7FieGk-35" vertex="1">
          <mxGeometry x="50" y="45" width="120" height="60" as="geometry" />
        </mxCell>
        <mxCell id="Yx7xHUhz85fxbA7FieGk-50" value="requests DEK" style="shape=process;whiteSpace=wrap;html=1;backgroundOutline=1;strokeColor=#FFFFFF;fontColor=#FFFFFF;fillColor=#182E3E;" parent="Yx7xHUhz85fxbA7FieGk-35" vertex="1">
          <mxGeometry x="50" y="140" width="120" height="60" as="geometry" />
        </mxCell>
        <mxCell id="Yx7xHUhz85fxbA7FieGk-68" style="edgeStyle=orthogonalEdgeStyle;rounded=0;orthogonalLoop=1;jettySize=auto;html=1;exitX=0.5;exitY=1;exitDx=0;exitDy=0;strokeColor=#d79b00;strokeWidth=5;fillColor=#ffe6cc;" parent="Yx7xHUhz85fxbA7FieGk-35" source="Yx7xHUhz85fxbA7FieGk-51" target="Yx7xHUhz85fxbA7FieGk-55" edge="1">
          <mxGeometry relative="1" as="geometry" />
        </mxCell>
        <mxCell id="Yx7xHUhz85fxbA7FieGk-51" value="generate DEK" style="shape=process;whiteSpace=wrap;html=1;backgroundOutline=1;strokeColor=#d79b00;fillColor=#ffe6cc;" parent="Yx7xHUhz85fxbA7FieGk-35" vertex="1">
          <mxGeometry x="50" y="310" width="120" height="60" as="geometry" />
        </mxCell>
        <mxCell id="Yx7xHUhz85fxbA7FieGk-54" value="use DEK to decrypt and encrypt items when sending to server" style="shape=process;whiteSpace=wrap;html=1;backgroundOutline=1;strokeColor=#FFFFFF;fontColor=#FFFFFF;fillColor=#182E3E;" parent="Yx7xHUhz85fxbA7FieGk-35" vertex="1">
          <mxGeometry x="50" y="580" width="120" height="80" as="geometry" />
        </mxCell>
        <mxCell id="Yx7xHUhz85fxbA7FieGk-55" value="register user" style="shape=process;whiteSpace=wrap;html=1;backgroundOutline=1;strokeColor=#d79b00;fillColor=#ffe6cc;" parent="Yx7xHUhz85fxbA7FieGk-35" vertex="1">
          <mxGeometry x="50" y="400" width="120" height="60" as="geometry" />
        </mxCell>
        <mxCell id="Yx7xHUhz85fxbA7FieGk-82" value="" style="shape=image;verticalLabelPosition=bottom;labelBackgroundColor=default;verticalAlign=top;aspect=fixed;imageAspect=0;image=data:image/svg+xml,PHN2ZyB4bWxucz0iaHR0cDovL3d3dy53My5vcmcvMjAwMC9zdmciIHhtbG5zOnhsaW5rPSJodHRwOi8vd3d3LnczLm9yZy8xOTk5L3hsaW5rIiB2ZXJzaW9uPSIxLjEiIGZpbGw9Im5vbmUiIHN0eWxlPSItd2Via2l0LXByaW50LWNvbG9yLWFkanVzdDogZXhhY3Q7IiB2aWV3Qm94PSIwIDAgOTUgOTUiIGlkPSJzY3JlZW5zaG90LThkMGVmODBkLTk3ZGEtODAyZS04MDAyLTc5MDA2Mjg3M2FhMiIgaGVpZ2h0PSI5NSIgd2lkdGg9Ijk1Ij48ZyByeT0iMCIgcng9IjAiIGlkPSJzaGFwZS04ZDBlZjgwZC05N2RhLTgwMmUtODAwMi03OTAwNjI4NzNhYTIiPjxnIGlkPSJzaGFwZS03ZGQ0MjJkOS1jZGZiLTgwZDYtODAwMi03NjU2YTI0Y2Y3Y2IiPjxnIGlkPSJmaWxscy03ZGQ0MjJkOS1jZGZiLTgwZDYtODAwMi03NjU2YTI0Y2Y3Y2IiIGNsYXNzPSJmaWxscyI+PGVsbGlwc2Ugc3R5bGU9ImZpbGw6IHJnYigzNSwgMzksIDQ3KTsgZmlsbC1vcGFjaXR5OiAxOyIgdHJhbnNmb3JtPSJtYXRyaXgoMS4wMDAwMDAsIDAuMDAwMDAwLCAwLjAwMDAwMCwgMS4wMDAwMDAsIDAuMDAwMDAwLCAwLjAwMDAwMCkiIGN5PSI0Ny41IiBjeD0iNDcuNSIgcnk9IjQ3LjUiIHJ4PSI0Ny41Ii8+PC9nPjwvZz48ZyBzdHlsZT0iZmlsbDogcmdiKDAsIDAsIDApOyIgcnk9IjAiIHJ4PSIwIiB3aWR0aD0iODAwcHgiIGhlaWdodD0iODAwcHgiIGlkPSJzaGFwZS03ZGQ0MjJkOS1jZGZiLTgwZDYtODAwMi03NjU2YTI0Y2Y3Y2MiPjxnIGlkPSJzaGFwZS03ZGQ0MjJkOS1jZGZiLTgwZDYtODAwMi03NjU2YTI0Y2Y3ZDAiPjxnIGlkPSJmaWxscy03ZGQ0MjJkOS1jZGZiLTgwZDYtODAwMi03NjU2YTI0Y2Y3ZDAiIGNsYXNzPSJmaWxscyI+PHBhdGggc3R5bGU9ImZpbGw6IHJnYigyMCwgMTU4LCAyMDIpOyBmaWxsLW9wYWNpdHk6IDE7IiBkPSJNNzMuMTc2LDM0LjAwMkw3My4xNzYsMzQuMDAyWkM3Mi4zMjcsMzMuNzEyLDcxLjQ3MiwzMy40NDIsNzAuNjExLDMzLjE5MkM3MC43NTQsMzIuNjExLDcwLjg4NiwzMi4wMjcsNzEuMDA2LDMxLjQzOUM3Mi45NDksMjEuOTkzLDcxLjY3OSwxNC4zODMsNjcuMzQ0LDExLjg3N0M2My4xOTMsOS40NzQsNTYuMzg3LDExLjk3OSw0OS41MjAsMTcuOTY5QzQ4Ljg0NSwxOC41NjAsNDguMTg0LDE5LjE2OCw0Ny41MzcsMTkuNzk1QzQ3LjEwNSwxOS4zNzksNDYuNjYyLDE4Ljk3MSw0Ni4yMDgsMTguNTczQzM5LjAxMiwxMi4xNjgsMzEuNzk4LDkuNDcwLDI3LjQ2OSwxMS45ODRDMjMuMzE4LDE0LjM5MywyMi4wODUsMjEuNTQ2LDIzLjgzMywzMC40OTlDMjQuMDA4LDMxLjM4NSwyNC4yMDQsMzIuMjY2LDI0LjQyMiwzMy4xNDRDMjMuNDAxLDMzLjQzNSwyMi40MTUsMzMuNzQ1LDIxLjQ3MiwzNC4wNzRDMTMuMDQ1LDM3LjAyMSw3LjY1Niw0MS42NDEsNy42NTYsNDYuNDMyQzcuNjU2LDUxLjM4MywxMy40NDAsNTYuMzQ2LDIyLjIyNyw1OS4zNTZDMjIuOTQwLDU5LjU5OSwyMy42NjAsNTkuODI0LDI0LjM4Niw2MC4wMzJDMjQuMTUwLDYwLjk3MiwyMy45NDEsNjEuOTIyLDIzLjc2MCw2Mi44ODJDMjIuMTAwLDcxLjY4MSwyMy4zOTUsNzguNjY2LDI3LjUzNyw4MS4wNTlDMzEuODE1LDgzLjUzMSwzOC45OTIsODAuOTkxLDQ1Ljk4OCw3NC44NjVDNDYuNTQxLDc0LjM4MSw0Ny4wOTQsNzMuODY5LDQ3LjY0OCw3My4zMzBDNDguMzQ3LDc0LjAwNiw0OS4wNjcsNzQuNjYyLDQ5LjgwNiw3NS4yOTlDNTYuNTc5LDgxLjEzOSw2My4yNjgsODMuNDk4LDY3LjQwNCw4MS4wOThDNzEuNjc5LDc4LjYxNyw3My4wNjgsNzEuMTEzLDcxLjI2Myw2MS45ODRDNzEuMTI1LDYxLjI4Nyw3MC45NjYsNjAuNTc1LDcwLjc4NSw1OS44NDlDNzEuMjkwLDU5LjcwMCw3MS43ODQsNTkuNTQ2LDcyLjI2OCw1OS4zODZDODEuMzk5LDU2LjM1Myw4Ny4zNDcsNTEuNDQ5LDg3LjM0Nyw0Ni40MzdDODcuMzQ0LDQxLjYyMiw4MS43ODIsMzYuOTcyLDczLjE3NiwzNC4wMDJaWk01MS43NjAsMjAuNTQyQzU3LjY0MiwxNS40MTAsNjMuMTQwLDEzLjM4NSw2NS42NDcsMTQuODMzTDY1LjY0NywxNC44MzNDNjguMzE1LDE2LjM3NSw2OS4zNTMsMjIuNTk0LDY3LjY3NiwzMC43NTBDNjcuNTY1LDMxLjI4MSw2Ny40NDYsMzEuODExLDY3LjMxNywzMi4zMzlDNjMuODA3LDMxLjU0MCw2MC4yNDgsMzAuOTc3LDU2LjY2MiwzMC42NTJDNTQuNjEwLDI3LjY5NSw1Mi4zNTksMjQuODgwLDQ5LjkyNywyMi4yMjdDNTAuNTIzLDIxLjY0OSw1MS4xMzIsMjEuMDg3LDUxLjc2MCwyMC41NDJaWk0zMS4xODYsNTAuNTI2QzMxLjkwNiw1MS45MjAsMzIuNjU5LDUzLjI5OCwzMy40NDUsNTQuNjU4QzM0LjI0NSw1Ni4wNDYsMzUuMDc5LDU3LjQxMywzNS45NDcsNTguNzYwQzMzLjQ4MCw1OC40OTIsMzEuMDI5LDU4LjA5NywyOC42MDIsNTcuNTc3QzI5LjMwNiw1NS4yOTksMzAuMTczLDUyLjkzMywzMS4xODYsNTAuNTI2WlpNMzEuMTg2LDQyLjUwMkMzMC4xOTAsNDAuMTQ3LDI5LjM0NiwzNy44MjksMjguNjU0LDM1LjU5MUMzMC45MjgsMzUuMDgxLDMzLjM1MiwzNC42NjUsMzUuODc5LDM0LjM0OUMzNS4wMzIsMzUuNjcxLDM0LjIxOCwzNy4wMTIsMzMuNDM1LDM4LjM3MkMzMi42NTMsMzkuNzMyLDMxLjkwMSw0MS4xMDksMzEuMTg2LDQyLjUwMlpaTTMyLjk5NSw0Ni41MTVDMzQuMDQ0LDQ0LjMyNywzNS4xNzQsNDIuMTgxLDM2LjM4NSw0MC4wNzdMMzYuMzg1LDQwLjA3N0MzNy41OTUsMzcuOTc0LDM4Ljg4MywzNS45MTksNDAuMjQ4LDMzLjkxM0M0Mi42MTksMzMuNzMzLDQ1LjA1MCwzMy42MzksNDcuNTA1LDMzLjYzOUM0OS45NjAsMzMuNjM5LDUyLjQwNiwzMy43MzMsNTQuNzc1LDMzLjkxNEM1Ni4xMjYsMzUuOTE3LDU3LjQwNiwzNy45NjQsNTguNjE1LDQwLjA1N0M1OS44MjMsNDIuMTUwLDYwLjk2OCw0NC4yODYsNjIuMDUwLDQ2LjQ2NUM2MC45ODMsNDguNjYxLDU5Ljg0MCw1MC44MTYsNTguNjIzLDUyLjkzMEw1OC42MjMsNTIuOTMwQzU3LjQxNiw1NS4wMzMsNTYuMTQzLDU3LjA5Myw1NC44MDUsNTkuMTEyQzUyLjQzOSw1OS4yNzgsNDkuOTkwLDU5LjM3MCw0Ny41MDAsNTkuMzcwQzQ1LjAxMCw1OS4zNzAsNDIuNjA4LDU5LjI5Miw0MC4yODUsNTkuMTQwQzM4LjkwOSw1Ny4xMjcsMzcuNjExLDU1LjA2NCwzNi4zOTAsNTIuOTUwQzM1LjE2OSw1MC44MzYsMzQuMDM2LDQ4LjY5MSwzMi45OTUsNDYuNTE1WlpNNjEuNTcwLDU0LjYzNUM2Mi4zNzIsNTMuMjQyLDYzLjE0Myw1MS44MzIsNjMuODgxLDUwLjQwM0w2My44ODEsNTAuNDAzQzY0Ljg5Myw1Mi42OTgsNjUuNzg2LDU1LjA0Myw2Ni41NTcsNTcuNDI5QzY0LjEwMiw1Ny45ODIsNjEuNjIwLDU4LjQwNSw1OS4xMjEsNTguNjk5QzU5Ljk2NCw1Ny4zNjEsNjAuNzgxLDU2LjAwNiw2MS41NzAsNTQuNjM1WlpNNjMuODQ4LDQyLjUwNEM2My4xMTMsNDEuMTA0LDYyLjM0OCwzOS43MjAsNjEuNTU1LDM4LjM1NEw2MS41NTUsMzguMzU0QzYwLjc4MCwzNy4wMDYsNTkuOTczLDM1LjY3NCw1OS4xMzMsMzQuMzU5QzYxLjY3NCwzNC42ODEsNjQuMTEzLDM1LjExMCw2Ni4zOTksMzUuNjMzQzY1LjY2NCwzNy45NjQsNjQuODEzLDQwLjI1OCw2My44NDgsNDIuNTA0WlpNNDcuNTM4LDI0LjY2Nkw0Ny41MzgsMjQuNjY2WkM0OS4xOTYsMjYuNDc3LDUwLjc2MSwyOC4zNzEsNTIuMjI4LDMwLjM0MEM0OS4wOTAsMzAuMTkxLDQ1Ljk1MSwzMC4xOTEsNDIuODA4LDMwLjM0MEM0NC4zNTcsMjguMjkxLDQ1Ljk0MywyNi4zOTEsNDcuNTM4LDI0LjY2NlpaTTI5LjE4MiwxNC45MzRDMzEuODQ4LDEzLjM4NywzNy43NDMsMTUuNTk4LDQzLjk1NywyMS4xMjFDNDQuMzU0LDIxLjQ3NSw0NC43NTQsMjEuODQ1LDQ1LjE1MywyMi4yMjlDNDIuNzA4LDI0Ljg4Miw0MC40NDIsMjcuNjk0LDM4LjM2OSwzMC42NDdDMzQuNzkyLDMwLjk2OSwzMS4yMzksMzEuNTI0LDI3LjczNCwzMi4zMDdDMjcuNTMyLDMxLjQ5MywyNy4zNDksMzAuNjczLDI3LjE4NiwyOS44NDdMMjcuMTg2LDI5Ljg0N0MyNS42ODQsMjIuMTcyLDI2LjY3OCwxNi4zODYsMjkuMTgyLDE0LjkzNFpaTTI1LjI5NSw1Ni43NDVDMjQuNjMxLDU2LjU1NiwyMy45NzYsNTYuMzUwLDIzLjMyOCw1Ni4xMjlDMTkuNDQzLDU0LjgwMSwxNi4yMzQsNTMuMDY4LDE0LjAzMSw1MS4xODBDMTIuMDU5LDQ5LjQ4OCwxMS4wNjAsNDcuODAwLDExLjA2MCw0Ni40MzJDMTEuMDYwLDQzLjUyNSwxNS4zODYsMzkuODE2LDIyLjYwMSwzNy4zMDFDMjMuNTA3LDM2Ljk4NiwyNC40MjIsMzYuNjk3LDI1LjM0NCwzNi40MzZDMjYuNDE1LDM5Ljg4MCwyNy43MTMsNDMuMjQ5LDI5LjIyOCw0Ni41MjJDMjcuNjk1LDQ5LjgzOSwyNi4zODEsNTMuMjU1LDI1LjI5NSw1Ni43NDVaWk00My43NDUsNzIuMjk2QzQwLjY1Miw3NS4wMDUsMzcuNTU0LDc2LjkyNiwzNC44MjMsNzcuODk0TDM0LjgyMyw3Ny44OTRDMzIuMzY5LDc4Ljc2MiwzMC40MTUsNzguNzg3LDI5LjIzNSw3OC4xMDRDMjYuNzIxLDc2LjY1MiwyNS42NzYsNzEuMDQyLDI3LjEwMiw2My41MThDMjcuMjcxLDYyLjYzMywyNy40NjUsNjEuNzQ3LDI3LjY4Myw2MC44NjJDMzEuMjIzLDYxLjYyNSwzNC44MTEsNjIuMTQ1LDM4LjQyMiw2Mi40MjFDNDAuNTE1LDY1LjM4OSw0Mi44MDAsNjguMjE4LDQ1LjI2Miw3MC44ODhDNDQuNzY3LDcxLjM3NCw0NC4yNjEsNzEuODQyLDQzLjc0NSw3Mi4yOTZaWk00Ny42MzMsNjguNDQxQzQ2LjAxOSw2Ni42OTYsNDQuNDA5LDY0Ljc2NSw0Mi44MzgsNjIuNjkwQzQ0LjM2NSw2Mi43NTAsNDUuOTE4LDYyLjc3OSw0Ny41MDAsNjIuNzc5QzQ5LjEyNCw2Mi43NzksNTAuNzMxLDYyLjc0NSw1Mi4zMTQsNjIuNjczQzUwLjg1Myw2NC42NzQsNDkuMjkwLDY2LjU5OSw0Ny42MzMsNjguNDQxWlpNNjguMzA1LDczLjE4N0M2Ny44MzAsNzUuNzUwLDY2Ljg3Niw3Ny40NjAsNjUuNjk1LDc4LjE0NEM2My4xODMsNzkuNjAyLDU3LjgxMyw3Ny43MDgsNTIuMDIyLDcyLjcxMkM1MS4zNTgsNzIuMTQxLDUwLjY5NCw3MS41MjksNTAuMDE4LDcwLjg4NkM1Mi40MzMsNjguMjA2LDU0LjY2NCw2NS4zNjYsNTYuNjk3LDYyLjM4NkM2MC4zMjgsNjIuMDc4LDYzLjkzNCw2MS41MjEsNjcuNDg4LDYwLjcxOEM2Ny42NTEsNjEuMzc1LDY3Ljc5NSw2Mi4wMTksNjcuOTIwLDYyLjY1MEw2Ny45MjAsNjIuNjUwQzY4LjcxOCw2Ni42ODQsNjguODMzLDcwLjMzMyw2OC4zMDUsNzMuMTg3WlpNNzEuMTk0LDU2LjE0N0w3MS4xOTQsNTYuMTQ3WkM3MC43NTksNTYuMjkyLDcwLjMxMSw1Ni40MzEsNjkuODU2LDU2LjU2N0M2OC43NDEsNTMuMTA3LDY3LjM5Myw0OS43MjcsNjUuODIwLDQ2LjQ1MEM2Ny4zMzQsNDMuMjE3LDY4LjYyOSwzOS44ODYsNjkuNjk4LDM2LjQ3OUM3MC41MTMsMzYuNzE3LDcxLjMwNSwzNi45NjYsNzIuMDY3LDM3LjIzMEM3OS40NDEsMzkuNzczLDgzLjk0MCw0My41MzgsODMuOTQwLDQ2LjQzMkM4My45NDAsNDkuNTIwLDc5LjA4MSw1My41MjcsNzEuMTk0LDU2LjE0N1paIiByeT0iMCIgcng9IjAiLz48L2c+PC9nPjxnIGlkPSJzaGFwZS03ZGQ0MjJkOS1jZGZiLTgwZDYtODAwMi03NjU2YTI0Y2Y3ZDEiPjxnIGlkPSJmaWxscy03ZGQ0MjJkOS1jZGZiLTgwZDYtODAwMi03NjU2YTI0Y2Y3ZDEiIGNsYXNzPSJmaWxscyI+PHBhdGggc3R5bGU9ImZpbGw6IHJnYigyMCwgMTU4LCAyMDIpOyBmaWxsLW9wYWNpdHk6IDE7IiBkPSJNNDcuNTAwLDUzLjU2NEM1MC4zODksNTMuNTczLDUzLjAwMCw1MS44NDAsNTQuMTEyLDQ5LjE3M0M1NS4yMjQsNDYuNTA3LDU0LjYxOSw0My40MzIsNTIuNTc5LDQxLjM4NkM1MC41MzksMzkuMzM5LDQ3LjQ2NywzOC43MjQsNDQuNzk3LDM5LjgyOEM0Mi4xMjYsNDAuOTMxLDQwLjM4NSw0My41MzYsNDAuMzg1LDQ2LjQyNUM0MC4zODEsNDguMzE2LDQxLjEyOCw1MC4xMzAsNDIuNDYzLDUxLjQ2OUM0My43OTcsNTIuODA4LDQ1LjYxMCw1My41NjIsNDcuNTAwLDUzLjU2NFpaIiByeT0iMCIgcng9IjAiLz48L2c+PC9nPjwvZz48L2c+PC9zdmc+;" parent="Yx7xHUhz85fxbA7FieGk-35" vertex="1">
          <mxGeometry x="160" y="-10" width="50" height="50" as="geometry" />
        </mxCell>
        <mxCell id="Yx7xHUhz85fxbA7FieGk-36" value="API" style="swimlane;startSize=30;strokeColor=#FFFFFF;fontColor=#FFFFFF;fillColor=#182E3E;" parent="Yx7xHUhz85fxbA7FieGk-34" vertex="1">
          <mxGeometry x="240" width="220" height="680" as="geometry" />
        </mxCell>
        <mxCell id="Yx7xHUhz85fxbA7FieGk-71" style="edgeStyle=orthogonalEdgeStyle;rounded=0;orthogonalLoop=1;jettySize=auto;html=1;exitX=0.75;exitY=1;exitDx=0;exitDy=0;entryX=1;entryY=0.5;entryDx=0;entryDy=0;strokeColor=#d79b00;fillColor=#ffe6cc;strokeWidth=5;" parent="Yx7xHUhz85fxbA7FieGk-36" source="Yx7xHUhz85fxbA7FieGk-49" target="Yx7xHUhz85fxbA7FieGk-70" edge="1">
          <mxGeometry relative="1" as="geometry" />
        </mxCell>
        <mxCell id="Yx7xHUhz85fxbA7FieGk-49" value="get encrypted DEK for uid from DB" style="shape=process;whiteSpace=wrap;html=1;backgroundOutline=1;strokeColor=#FFFFFF;fontColor=#FFFFFF;fillColor=#182E3E;" parent="Yx7xHUhz85fxbA7FieGk-36" vertex="1">
          <mxGeometry x="50" y="140" width="120" height="60" as="geometry" />
        </mxCell>
        <mxCell id="Yx7xHUhz85fxbA7FieGk-52" value="respond with DEK" style="shape=process;whiteSpace=wrap;html=1;backgroundOutline=1;strokeColor=#FFFFFF;fontColor=#FFFFFF;fillColor=#182E3E;" parent="Yx7xHUhz85fxbA7FieGk-36" vertex="1">
          <mxGeometry x="60" y="590" width="120" height="60" as="geometry" />
        </mxCell>
        <mxCell id="Yx7xHUhz85fxbA7FieGk-56" value="register user with new DEK" style="shape=process;whiteSpace=wrap;html=1;backgroundOutline=1;strokeColor=#d79b00;fillColor=#ffe6cc;" parent="Yx7xHUhz85fxbA7FieGk-36" vertex="1">
          <mxGeometry x="60" y="400" width="120" height="60" as="geometry" />
        </mxCell>
        <mxCell id="Yx7xHUhz85fxbA7FieGk-58" value="set encrypted DEK for uid from DB" style="shape=process;whiteSpace=wrap;html=1;backgroundOutline=1;strokeColor=#d79b00;fillColor=#ffe6cc;" parent="Yx7xHUhz85fxbA7FieGk-36" vertex="1">
          <mxGeometry x="60" y="480" width="120" height="60" as="geometry" />
        </mxCell>
        <mxCell id="Yx7xHUhz85fxbA7FieGk-70" value="user not registered error" style="rounded=1;whiteSpace=wrap;html=1;strokeColor=#d79b00;fillColor=#ffe6cc;fontStyle=0" parent="Yx7xHUhz85fxbA7FieGk-36" vertex="1">
          <mxGeometry x="-90" y="220" width="180" height="30" as="geometry" />
        </mxCell>
        <mxCell id="Yx7xHUhz85fxbA7FieGk-80" value="" style="shape=image;verticalLabelPosition=bottom;labelBackgroundColor=default;verticalAlign=top;aspect=fixed;imageAspect=0;image=data:image/svg+xml,PHN2ZyB4bWxucz0iaHR0cDovL3d3dy53My5vcmcvMjAwMC9zdmciIHhtbG5zOnhsaW5rPSJodHRwOi8vd3d3LnczLm9yZy8xOTk5L3hsaW5rIiB2ZXJzaW9uPSIxLjEiIGZpbGw9Im5vbmUiIHN0eWxlPSItd2Via2l0LXByaW50LWNvbG9yLWFkanVzdDogZXhhY3Q7IiB2aWV3Qm94PSIwIDAgOTUgOTUiIGlkPSJzY3JlZW5zaG90LThkMGVmODBkLTk3ZGEtODAyZS04MDAyLTc5MDA4NTg0YmI2OCIgaGVpZ2h0PSI5NSIgd2lkdGg9Ijk1Ij48ZyByeT0iMCIgcng9IjAiIGlkPSJzaGFwZS04ZDBlZjgwZC05N2RhLTgwMmUtODAwMi03OTAwODU4NGJiNjgiPjxnIGlkPSJzaGFwZS1mOTNhNzFkMS02YjgzLTgwNWEtODAwMi03NjUwNTY1MTZmMmIiPjxnIGlkPSJmaWxscy1mOTNhNzFkMS02YjgzLTgwNWEtODAwMi03NjUwNTY1MTZmMmIiIGNsYXNzPSJmaWxscyI+PGVsbGlwc2Ugc3R5bGU9ImZpbGw6IHJnYigwLCAxNTAsIDEzNik7IGZpbGwtb3BhY2l0eTogMTsiIHRyYW5zZm9ybT0ibWF0cml4KDEuMDAwMDAwLCAwLjAwMDAwMCwgMC4wMDAwMDAsIDEuMDAwMDAwLCAwLjAwMDAwMCwgMC4wMDAwMDApIiBjeT0iNDcuNSIgY3g9IjQ3LjUiIHJ5PSI0Ny41IiByeD0iNDcuNSIvPjwvZz48L2c+PGcgaWQ9InNoYXBlLWY5M2E3MWQxLTZiODMtODA1YS04MDAyLTc2NTA1NjUxNmYyYyI+PGcgaWQ9ImZpbGxzLWY5M2E3MWQxLTZiODMtODA1YS04MDAyLTc2NTA1NjUxNmYyYyIgY2xhc3M9ImZpbGxzIj48cGF0aCBzdHlsZT0iZmlsbDogcmdiKDI1NSwgMjU1LCAyNTUpOyBmaWxsLW9wYWNpdHk6IDE7IiBkPSJNNDQuNjc0LDg3LjEzOEw0NC42NzQsNTcuMTUyTDI4LjAwMCw1Ny4xNTJMNTEuOTUxLDEwLjUwMEw1MS45NTEsNDAuNDg2TDY4LjAwMCw0MC40ODZMNDQuNjc0LDg3LjEzOFpMNDQuNjc0LDg3LjEzOFoiIHJ5PSIwIiByeD0iMCIvPjwvZz48L2c+PC9nPjwvc3ZnPg==;" parent="Yx7xHUhz85fxbA7FieGk-36" vertex="1">
          <mxGeometry x="140" y="-10" width="50" height="50" as="geometry" />
        </mxCell>
        <mxCell id="Yx7xHUhz85fxbA7FieGk-72" style="edgeStyle=orthogonalEdgeStyle;rounded=0;orthogonalLoop=1;jettySize=auto;html=1;exitX=0;exitY=0.5;exitDx=0;exitDy=0;entryX=0.5;entryY=0;entryDx=0;entryDy=0;strokeColor=#d79b00;fillColor=#ffe6cc;strokeWidth=5;" parent="Yx7xHUhz85fxbA7FieGk-34" source="Yx7xHUhz85fxbA7FieGk-70" target="Yx7xHUhz85fxbA7FieGk-51" edge="1">
          <mxGeometry relative="1" as="geometry" />
        </mxCell>
        <mxCell id="Yx7xHUhz85fxbA7FieGk-74" style="edgeStyle=orthogonalEdgeStyle;rounded=0;orthogonalLoop=1;jettySize=auto;html=1;exitX=1;exitY=0.5;exitDx=0;exitDy=0;entryX=0;entryY=0.5;entryDx=0;entryDy=0;strokeColor=#d79b00;strokeWidth=5;fillColor=#ffe6cc;" parent="Yx7xHUhz85fxbA7FieGk-34" source="Yx7xHUhz85fxbA7FieGk-55" target="Yx7xHUhz85fxbA7FieGk-56" edge="1">
          <mxGeometry relative="1" as="geometry" />
        </mxCell>
        <mxCell id="Yx7xHUhz85fxbA7FieGk-75" style="edgeStyle=orthogonalEdgeStyle;rounded=0;orthogonalLoop=1;jettySize=auto;html=1;exitX=1;exitY=0.5;exitDx=0;exitDy=0;entryX=0;entryY=0.5;entryDx=0;entryDy=0;strokeColor=#d79b00;strokeWidth=5;fillColor=#ffe6cc;" parent="Yx7xHUhz85fxbA7FieGk-34" source="Yx7xHUhz85fxbA7FieGk-56" target="Yx7xHUhz85fxbA7FieGk-57" edge="1">
          <mxGeometry relative="1" as="geometry" />
        </mxCell>
        <mxCell id="Yx7xHUhz85fxbA7FieGk-76" style="edgeStyle=orthogonalEdgeStyle;rounded=0;orthogonalLoop=1;jettySize=auto;html=1;exitX=0.5;exitY=1;exitDx=0;exitDy=0;entryX=1;entryY=0.5;entryDx=0;entryDy=0;strokeColor=#d79b00;strokeWidth=5;fillColor=#ffe6cc;" parent="Yx7xHUhz85fxbA7FieGk-34" source="Yx7xHUhz85fxbA7FieGk-57" target="Yx7xHUhz85fxbA7FieGk-58" edge="1">
          <mxGeometry relative="1" as="geometry" />
        </mxCell>
        <mxCell id="Yx7xHUhz85fxbA7FieGk-77" style="edgeStyle=orthogonalEdgeStyle;rounded=0;orthogonalLoop=1;jettySize=auto;html=1;exitX=0;exitY=0.5;exitDx=0;exitDy=0;entryX=0;entryY=0.5;entryDx=0;entryDy=0;strokeColor=#d79b00;strokeWidth=5;fillColor=#ffe6cc;" parent="Yx7xHUhz85fxbA7FieGk-34" source="Yx7xHUhz85fxbA7FieGk-58" target="Yx7xHUhz85fxbA7FieGk-50" edge="1">
          <mxGeometry relative="1" as="geometry">
            <Array as="points">
              <mxPoint x="40" y="510" />
              <mxPoint x="40" y="170" />
            </Array>
          </mxGeometry>
        </mxCell>
        <mxCell id="Yx7xHUhz85fxbA7FieGk-92" style="edgeStyle=orthogonalEdgeStyle;rounded=0;orthogonalLoop=1;jettySize=auto;html=1;exitX=1;exitY=0.5;exitDx=0;exitDy=0;entryX=0;entryY=0.5;entryDx=0;entryDy=0;strokeColor=#82b366;fillColor=#d5e8d4;strokeWidth=5;" parent="Yx7xHUhz85fxbA7FieGk-34" source="Yx7xHUhz85fxbA7FieGk-50" target="Yx7xHUhz85fxbA7FieGk-49" edge="1">
          <mxGeometry relative="1" as="geometry" />
        </mxCell>
        <mxCell id="Yx7xHUhz85fxbA7FieGk-47" value="GCP Key Manager" style="swimlane;startSize=30;strokeColor=#FFFFFF;fontColor=#FFFFFF;fillColor=#182E3E;" parent="Yx7xHUhz85fxbA7FieGk-34" vertex="1">
          <mxGeometry x="460" width="255" height="680" as="geometry" />
        </mxCell>
        <mxCell id="Yx7xHUhz85fxbA7FieGk-53" value="decrypt DEK" style="shape=process;whiteSpace=wrap;html=1;backgroundOutline=1;strokeColor=#FFFFFF;fontColor=#FFFFFF;fillColor=#182E3E;" parent="Yx7xHUhz85fxbA7FieGk-47" vertex="1">
          <mxGeometry x="50" y="590" width="120" height="60" as="geometry" />
        </mxCell>
        <mxCell id="Yx7xHUhz85fxbA7FieGk-57" value="encrypt DEK" style="shape=process;whiteSpace=wrap;html=1;backgroundOutline=1;strokeColor=#d79b00;fillColor=#ffe6cc;" parent="Yx7xHUhz85fxbA7FieGk-47" vertex="1">
          <mxGeometry x="50" y="400" width="120" height="60" as="geometry" />
        </mxCell>
        <mxCell id="Yx7xHUhz85fxbA7FieGk-81" value="" style="shape=image;verticalLabelPosition=bottom;labelBackgroundColor=default;verticalAlign=top;aspect=fixed;imageAspect=0;image=data:image/svg+xml,PHN2ZyB4bWxucz0iaHR0cDovL3d3dy53My5vcmcvMjAwMC9zdmciIHhtbG5zOnhsaW5rPSJodHRwOi8vd3d3LnczLm9yZy8xOTk5L3hsaW5rIiB2ZXJzaW9uPSIxLjEiIGZpbGw9Im5vbmUiIHN0eWxlPSItd2Via2l0LXByaW50LWNvbG9yLWFkanVzdDogZXhhY3Q7IiB2aWV3Qm94PSIwIDAgOTUgOTUiIGlkPSJzY3JlZW5zaG90LThkMGVmODBkLTk3ZGEtODAyZS04MDAyLTc5MDA3NTM0ZWQ0OCIgaGVpZ2h0PSI5NSIgd2lkdGg9Ijk1Ij48ZyByeT0iMCIgcng9IjAiIGlkPSJzaGFwZS04ZDBlZjgwZC05N2RhLTgwMmUtODAwMi03OTAwNzUzNGVkNDgiPjxnIGlkPSJzaGFwZS05ZDlkODBkZi01ODAyLTgwMDMtODAwMi03NjVjMjdkZDBkNDAiPjxnIGlkPSJmaWxscy05ZDlkODBkZi01ODAyLTgwMDMtODAwMi03NjVjMjdkZDBkNDAiIGNsYXNzPSJmaWxscyI+PGVsbGlwc2Ugc3R5bGU9ImZpbGw6IHJnYigyNTUsIDI1NSwgMjU1KTsgZmlsbC1vcGFjaXR5OiAxOyIgdHJhbnNmb3JtPSJtYXRyaXgoMS4wMDAwMDAsIDAuMDAwMDAwLCAwLjAwMDAwMCwgMS4wMDAwMDAsIDAuMDAwMDAwLCAwLjAwMDAwMCkiIGN5PSI0Ny41IiBjeD0iNDcuNSIgcnk9IjQ3LjUiIHJ4PSI0Ny41Ii8+PC9nPjwvZz48ZyByeT0iMCIgcng9IjAiIGlkPSJzaGFwZS05ZDlkODBkZi01ODAyLTgwMDMtODAwMi03NjYyZmQyZDMyOWMiPjxnIGlkPSJzaGFwZS05ZDlkODBkZi01ODAyLTgwMDMtODAwMi03NjYyNmUyYjdlNWIiPjxnIGlkPSJmaWxscy05ZDlkODBkZi01ODAyLTgwMDMtODAwMi03NjYyNmUyYjdlNWIiIGNsYXNzPSJmaWxscyI+PHBhdGggc3R5bGU9ImZpbGw6IHJnYigyMTksIDY4LCA1NSk7IGZpbGwtb3BhY2l0eTogMTsiIGQ9Ik01OC43NjMsMjkuNzQ3TDYxLjIwMywyOS43NDdMNjguMTU3LDIyLjc4Nkw2OC40OTgsMTkuODMxQzYwLjM5OSwxMi42NzUsNDkuMTg0LDEwLjIxMywzOC44MzcsMTMuMzE5QzI4LjQ5MCwxNi40MjYsMjAuNDc5LDI0LjY2MCwxNy42NTAsMzUuMDk2QzE4LjQyNSwzNC43NzgsMTkuMjgzLDM0LjcyNywyMC4wOTAsMzQuOTQ5TDMzLjk5OCwzMi42NTRDMzMuOTk4LDMyLjY1NCwzNC43MDUsMzEuNDgxLDM1LjA3MSwzMS41NTRDNDEuMjU4LDI0Ljc1Myw1MS42NjksMjMuOTYxLDU4Ljc2MywyOS43NDdaWiIgcnk9IjAiIHJ4PSIwIiBjbGFzcz0iY2xzLTEiLz48L2c+PC9nPjxnIGlkPSJzaGFwZS05ZDlkODBkZi01ODAyLTgwMDMtODAwMi03NjYyNmUyYzI1MzIiPjxnIGlkPSJmaWxscy05ZDlkODBkZi01ODAyLTgwMDMtODAwMi03NjYyNmUyYzI1MzIiIGNsYXNzPSJmaWxscyI+PHBhdGggc3R5bGU9ImZpbGw6IHJnYig2NiwgMTMzLCAyNDQpOyBmaWxsLW9wYWNpdHk6IDE7IiBkPSJNNzguMDYzLDM1LjA5NkM3Ni40NjQsMjkuMjA0LDczLjE4MywyMy45MDcsNjguNjIwLDE5Ljg1NUw1OC44NjEsMjkuNjI1QzYyLjk4MiwzMi45OTYsNjUuMzI5LDM4LjA3NCw2NS4yMjksNDMuNDAwTDY1LjIyOSw0NS4xMzRDNzAuMDI2LDQ1LjEzNCw3My45MTUsNDkuMDI3LDczLjkxNSw1My44MjlDNzMuOTE1LDU4LjYzMSw3MC4wMjYsNjIuNTI0LDY1LjIyOSw2Mi41MjRMNDcuODU3LDYyLjUyNEw0Ni4xMjQsNjQuMjgzTDQ2LjEyNCw3NC43MTJMNDcuODU3LDc2LjQ0Nkw2NS4yMjksNzYuNDQ2Qzc1LjE4OSw3Ni41MjQsODQuMDI1LDcwLjA2Myw4Ni45ODEsNjAuNTQwQzg5LjkzNiw1MS4wMTgsODYuMzE0LDQwLjY4Miw3OC4wNjMsMzUuMDk2WloiIHJ5PSIwIiByeD0iMCIgY2xhc3M9ImNscy0yIi8+PC9nPjwvZz48ZyBpZD0ic2hhcGUtOWQ5ZDgwZGYtNTgwMi04MDAzLTgwMDItNzY2MjZlMmNiZDgwIj48ZyBpZD0iZmlsbHMtOWQ5ZDgwZGYtNTgwMi04MDAzLTgwMDItNzY2MjZlMmNiZDgwIiBjbGFzcz0iZmlsbHMiPjxwYXRoIHN0eWxlPSJmaWxsOiByZ2IoMTUsIDE1NywgODgpOyBmaWxsLW9wYWNpdHk6IDE7IiBkPSJNMzAuNDYwLDc2LjM0OUw0Ny44MzIsNzYuMzQ5TDQ3LjgzMiw2Mi40MjdMMzAuNDYwLDYyLjQyN0MyOS4yMjIsNjIuNDI2LDI3Ljk5OSw2Mi4xNjAsMjYuODczLDYxLjY0NUwyNC40MzMsNjIuNDAyTDE3LjQzMSw2OS4zNjNMMTYuODIxLDcxLjgwNkMyMC43NDgsNzQuNzc0LDI1LjUzOSw3Ni4zNzAsMzAuNDYwLDc2LjM0OVpaIiByeT0iMCIgcng9IjAiIGNsYXNzPSJjbHMtMyIvPjwvZz48L2c+PGcgaWQ9InNoYXBlLTlkOWQ4MGRmLTU4MDItODAwMy04MDAyLTc2NjI2ZTJjZDcyMyI+PGcgaWQ9ImZpbGxzLTlkOWQ4MGRmLTU4MDItODAwMy04MDAyLTc2NjI2ZTJjZDcyMyIgY2xhc3M9ImZpbGxzIj48cGF0aCBzdHlsZT0iZmlsbDogcmdiKDI0NCwgMTgwLCAwKTsgZmlsbC1vcGFjaXR5OiAxOyIgZD0iTTMwLjQ2MCwzMS4xODhDMjAuODEwLDMxLjI0NiwxMi4yNjIsMzcuNDMyLDkuMTgzLDQ2LjU4N0M2LjEwMyw1NS43NDEsOS4xNzIsNjUuODQzLDE2LjgyMSw3MS43MzJMMjYuODk4LDYxLjY0NUMyMy4zNzcsNjAuMDUzLDIxLjMzMCw1Ni4zMjQsMjEuODc1LDUyLjQ5NUMyMi40MTksNDguNjY3LDI1LjQyNSw0NS42NTgsMjkuMjQ5LDQ1LjExM0MzMy4wNzQsNDQuNTY4LDM2Ljc5OSw0Ni42MTcsMzguMzkwLDUwLjE0MUw0OC40NjcsNDAuMDU0QzQ0LjE3OSwzNC40NDMsMzcuNTE3LDMxLjE2MywzMC40NjAsMzEuMTg4WloiIHJ5PSIwIiByeD0iMCIgY2xhc3M9ImNscy00Ii8+PC9nPjwvZz48L2c+PC9nPjwvc3ZnPg==;" parent="Yx7xHUhz85fxbA7FieGk-47" vertex="1">
          <mxGeometry x="190" y="-10" width="50" height="50" as="geometry" />
        </mxCell>
        <mxCell id="XThWHbHolKILC9ehBfzs-1" style="edgeStyle=orthogonalEdgeStyle;rounded=0;orthogonalLoop=1;jettySize=auto;html=1;exitX=1;exitY=0.5;exitDx=0;exitDy=0;entryX=1;entryY=0.5;entryDx=0;entryDy=0;strokeColor=#82b366;fillColor=#d5e8d4;strokeWidth=5;" edge="1" parent="Yx7xHUhz85fxbA7FieGk-34" source="Yx7xHUhz85fxbA7FieGk-49" target="Yx7xHUhz85fxbA7FieGk-53">
          <mxGeometry relative="1" as="geometry">
            <Array as="points">
              <mxPoint x="680" y="170" />
              <mxPoint x="680" y="620" />
            </Array>
          </mxGeometry>
        </mxCell>
      </root>
    </mxGraphModel>
  </diagram>
</mxfile>
